<?xml version="1.0" standalone="no"?><!DOCTYPE svg PUBLIC "-//W3C//DTD SVG 1.1//EN" "http://www.w3.org/Graphics/SVG/1.1/DTD/svg11.dtd"><svg t="1695894505312" class="icon" viewBox="0 0 1024 1024" version="1.1" xmlns="http://www.w3.org/2000/svg" p-id="3117" xmlns:xlink="http://www.w3.org/1999/xlink" width="128" height="128"><path d="M426.662222 494.928178a85.332444 85.332444 0 0 0 170.664889 0 85.332444 85.332444 0 0 0-170.664889 0z" fill="#FFFFFF" p-id="3118"></path><path d="M290.300976 978.763138a243.666795 243.666795 0 0 1 146.899803-159.571671 89.684399 89.684399 0 0 0 75.604546 36.692951 92.15904 92.15904 0 0 0 71.679253-30.933011 246.866762 246.866762 0 0 1 132.307955 153.5984 523.386548 523.386548 0 0 1-426.662222 0l0.170665 0.170665z" fill="#A35200" p-id="3119"></path><path d="M495.01351 752.97349V750.925511l8.277247 1.02399 8.234581-1.02399v2.047979l49.535484 6.399933c-9.471901 25.002406-3.071968 56.319413 19.1998 93.951022H426.662222c22.015771-37.631608 28.415704-68.948615 19.1998-93.908356l49.151488-6.399933z" fill="#FFE5DA" p-id="3120"></path><path d="M563.194133 759.672087v2.986635a76.7992 76.7992 0 0 0-2.005312 37.332945 351.100343 351.100343 0 0 1-40.106249 2.133311 658.89447 658.89447 0 0 1-73.727232-5.973271 73.727232 73.727232 0 0 0-3.626629-36.47962l51.711461-6.613265v-2.133311l8.618577 1.066656 8.618577-1.066656v2.133311l50.516807 6.613265z" fill="#EBBBA5" p-id="3121"></path><path d="M426.662222 819.191467h153.5984l-9.215904 105.726898-67.583296 30.805013-65.27932-30.805013L426.662222 819.191467z" fill="#8F7F75" p-id="3122"></path><path d="M434.214144 819.191467l-70.569932 34.55964a10.325226 10.325226 0 0 0 0 18.047812l51.754128 29.781023a4.138624 4.138624 0 0 1 0 6.99726l-17.663816 9.813231a4.138624 4.138624 0 0 0 0 7.210592L494.928178 972.789867l-60.714034-153.5984zM555.428881 819.191467l70.783263 34.55964a10.325226 10.325226 0 0 1 0 18.047812l-51.924793 29.781023a4.138624 4.138624 0 0 0 0 6.99726l17.749149 9.813231a4.138624 4.138624 0 0 1 0 7.210592L494.928178 972.789867l60.500703-153.5984z" fill="#FFFFFF" p-id="3123"></path><path d="M492.794867 119.465422h38.3996c81.961813 3.285299 161.448985 19.327799 219.261716 77.311195C818.039479 263.634587 819.191467 340.903116 819.191467 429.435527c0 50.047479-13.43986 97.961646-22.271768 108.030874-38.3996 44.244872-151.294424 18.175811-284.925032 17.407819-133.630608-0.810658-246.141436 26.87972-284.925032-17.407819-8.831908-10.069228-22.271768-57.983396-22.271768-108.030874 0-88.873741 1.151988-164.819616 68.735284-231.890918C331.345882 138.793221 410.833054 122.964052 492.794867 119.465422z" fill="#371F37" p-id="3124"></path><path d="M279.122426 592.719159A54.612764 54.612764 0 0 1 221.864356 543.866335a54.612764 54.612764 0 0 1 57.25807-48.810159v97.662983z m448.677993 4.479954a54.612764 54.612764 0 0 0 57.25807-48.810159 54.612764 54.612764 0 0 0-57.25807-48.852824v97.705649z" fill="#F4A68F" p-id="3125"></path><path d="M506.87472 221.864356c-135.465256 6.826596-247.080093 136.275914-232.530911 281.298403 0 7.253258 1.322653 13.653191 2.090645 25.813064v1.535984c0.725326 22.613098 3.754628 45.055531 9.087905 66.985969 33.834314 125.865356 109.140196 184.147415 221.13903 187.560713h10.623889c111.998833-3.413298 187.304716-61.695357 221.181696-187.560713a328.828575 328.828575 0 0 0 9.045239-66.985969v-1.535984c0-12.117207 1.365319-18.986469 2.133312-25.813064 14.719847-145.022489-97.108322-274.471808-232.530912-281.298403h-10.239893z" fill="#FFE5DA" p-id="3126"></path><path d="M358.396267 546.127645c0 18.85847 11.477214 34.132978 25.599733 34.132977 14.12252 0 25.599733-15.274508 25.599733-34.132977 0-18.85847-11.477214-34.132978-25.599733-34.132978-14.12252 0-25.599733 15.274508-25.599733 34.132978z" fill="#2F3241" p-id="3127"></path><path d="M341.543109 509.690691c14.933178-10.453224 34.772971-10.453224 49.748815 0 5.75994 3.455964 13.226529 1.535984 16.639827-4.351955a12.415871 12.415871 0 0 0-3.199967-16.085166 67.113968 67.113968 0 0 0-74.793888 0 12.415871 12.415871 0 0 0-3.83996 16.981157 12.074541 12.074541 0 0 0 15.786503 4.437287l-0.34133-0.981323zM597.327111 546.127645c0 18.85847 11.477214 34.132978 25.599734 34.132977 14.12252 0 25.599733-15.274508 25.599733-34.132977 0-18.85847-11.477214-34.132978-25.599733-34.132978-14.12252 0-25.599733 15.274508-25.599734 34.132978z" fill="#2F3241" p-id="3128"></path><path d="M648.313247 509.690691a43.263549 43.263549 0 0 0-49.748815 0 12.074541 12.074541 0 0 1-16.639827-4.351955 12.415871 12.415871 0 0 1 3.199967-16.085166 67.113968 67.113968 0 0 1 74.793887 0 12.415871 12.415871 0 0 1 3.83996 16.981157 12.074541 12.074541 0 0 1-15.786502 4.437287l0.34133-0.981323z" fill="#2F3241" p-id="3129"></path><path d="M460.7952 665.593067h102.398933c-6.229268 23.466422-34.21831 38.271601-62.463349 33.108988-19.967792-3.669295-35.540963-16.554494-39.935584-33.108988z" fill="#D97474" p-id="3130"></path><path d="M255.997333 403.409131v98.814971l122.025396-98.814971 1.109322 59.988709c68.521953-33.620983 110.334851-58.026062 125.438693-73.257904l-14.762513 68.393954c83.625796-26.666389 133.71594-51.583463 150.227769-74.751221 7.551921 56.831408 19.413131 89.257737 35.540963 97.364319l29.994354-31.786336a313.895397 313.895397 0 0 0 43.220883 62.207352c6.783929 4.991948 13.183863-35.540963 19.1998-121.598733-72.361913-121.044072-156.371704-181.587442-252.072041-181.587442C420.262289 208.381829 333.649858 273.405152 255.997333 403.409131zM582.607265 68.265956c16.341163 23.637087 27.007719 50.60214 31.146342 78.847178 4.18129 28.373038 23.423756 31.487672 57.5994 9.343903l26.495724-27.861043a270.973177 270.973177 0 0 0-47.9995 5.07728A294.780929 294.780929 0 0 0 582.607265 68.265956z" fill="#371F37" p-id="3131"></path></svg>