<?xml version="1.0" standalone="no"?><!DOCTYPE svg PUBLIC "-//W3C//DTD SVG 1.1//EN" "http://www.w3.org/Graphics/SVG/1.1/DTD/svg11.dtd"><svg t="1696843387677" class="icon" viewBox="0 0 1024 1024" version="1.1" xmlns="http://www.w3.org/2000/svg" p-id="3052" xmlns:xlink="http://www.w3.org/1999/xlink" width="200" height="200"><path d="M435.045 899.315h132.116V751.356H435.045z" fill="#FDCC9B" p-id="3053"></path><path d="M435.045 768.778s55.586 35.377 132.11 27.192v-44.636h-132.11v17.444zM309.008 521.912c0 40.597-28.86 73.541-64.474 73.541-35.596 0-64.457-32.945-64.457-73.541 0-40.625 28.86-73.564 64.457-73.564 35.614 0 64.474 32.94 64.474 73.564z m513.114 0c0 40.597-28.855 73.541-64.451 73.541s-64.457-32.945-64.457-73.541c0-40.625 28.86-73.564 64.457-73.564s64.451 32.94 64.451 73.564z" fill="#FCBC85" p-id="3054"></path><path d="M757.407 381.414c0-108.323-79.272-187.595-256.304-187.595-177.038 0-256.304 79.272-256.304 187.595 0 108.345-18.484 393.707 256.304 393.707 274.805 0 256.304-285.361 256.304-393.707z" fill="#FDCC9B" p-id="3055"></path><path d="M404.01 504.288c0 16.787-12.422 30.394-27.737 30.394-15.321 0-27.765-13.607-27.765-30.394s12.444-30.394 27.765-30.394c15.316 0 27.737 13.607 27.737 30.394z" fill="#3B2519" p-id="3056"></path><path d="M372.476 490.878c0 4.568-3.73 8.298-8.292 8.298-4.59 0-8.298-3.73-8.298-8.298a8.288 8.288 0 0 1 8.298-8.292c4.562-0.001 8.292 3.707 8.292 8.292z" fill="#FFFFFF" p-id="3057"></path><path d="M331.879 428.972c13.118 6.562 34.186-22.276 82.407 2.809 8.798 4.584 14.045-39.13-37.641-39.13-44.766-0.001-52.693 32.371-44.766 36.321z" fill="#51362A" p-id="3058"></path><path d="M657.112 504.288c0 16.787-12.422 30.394-27.737 30.394-15.321 0-27.742-13.607-27.742-30.394s12.422-30.394 27.742-30.394c15.316 0 27.737 13.607 27.737 30.394z" fill="#3B2519" p-id="3059"></path><path d="M625.578 490.878c0 4.568-3.708 8.298-8.298 8.298-4.584 0-8.292-3.73-8.292-8.298a8.286 8.286 0 0 1 8.292-8.292 8.286 8.286 0 0 1 8.298 8.292z" fill="#FFFFFF" p-id="3060"></path><path d="M670.326 428.972c-13.124 6.562-34.192-22.276-82.407 2.809-8.781 4.584-14.023-39.13 37.658-39.13 44.749-0.001 52.671 32.371 44.749 36.321z" fill="#51362A" p-id="3061"></path><path d="M501.103 611.167c-27.411 0-43.917-20.478-43.917-10.556 0 9.894 7.922 28.725 43.917 28.725 36.012 0 43.934-18.832 43.934-28.725 0-9.922-16.523 10.556-43.934 10.556z m0 91.115c-9.483 0-15.186-7.084-15.186-3.663s2.742 9.944 15.186 9.944c12.461 0 15.186-6.523 15.186-9.944 0-3.421-5.708 3.663-15.186 3.663z" fill="#FCBC85" p-id="3062"></path><path d="M501.103 677.023c-43.456 0-69.637-17.686-69.637-13.208 0 4.495 12.573 22.141 69.637 22.141 57.08 0 69.631-17.647 69.631-22.141 0-4.478-26.181 13.208-69.631 13.208z" fill="#F7945E" p-id="3063"></path><path d="M501.103 810.785v166.482H180.078c0-67.395 169.094-166.482 321.025-166.482z m0 0v166.482h321.02c-0.001-67.395-169.089-166.482-321.02-166.482z" fill="#F7941E" p-id="3064"></path><path d="M501.103 810.785c-32.304 0-65.401 4.523-97.486 12.248 0.219 0.258 35.596 45.889 97.486 45.889 57.322 0 95.441-39.068 100.946-45.08-33.158-8.231-67.457-13.057-100.946-13.057z" fill="#F36C21" p-id="3065"></path><path d="M435.045 816.555s19.332 23.967 66.058 23.967c46.743 0 66.052-23.967 66.052-23.967s-68.535-24.951-132.11 0z" fill="#FDCC9B" p-id="3066"></path><path d="M711.822 170.69S616.713 49.816 419 95.396c-197.707 45.58-212.522 164.482-206.573 280.159 5.944 115.7 21.815 183.555 40.557 175.173 18.736-8.382 8.995-84.755 10.972-102.379 1.972-17.624 19.815-97.306 140.054-85.412 120.245 11.871 221.567-31.714 221.567-31.714s40.799 51.552 67.637 61.429c53.636 19.731 36.035 151.341 57.058 151.341 21.001-0.002 124.06-303.931-38.45-373.303z" fill="#51362A" p-id="3067"></path></svg>