<?xml version="1.0" standalone="no"?><!DOCTYPE svg PUBLIC "-//W3C//DTD SVG 1.1//EN" "http://www.w3.org/Graphics/SVG/1.1/DTD/svg11.dtd"><svg t="1697161475155" class="icon" viewBox="0 0 1024 1024" version="1.1" xmlns="http://www.w3.org/2000/svg" p-id="3429" xmlns:xlink="http://www.w3.org/1999/xlink" width="200" height="200"><path d="M424.44231111 931.34506667h150.31864889V763.00060445H424.44231111z" fill="#FDCC9B" p-id="3430"></path><path d="M424.44231111 782.82296889s63.24451555 40.25116445 150.31182222 30.93845333v-50.78584888h-150.31182222v19.84739555zM281.04021333 501.94432c0 46.19036445-32.83626667 83.67331555-73.35708444 83.67331556-40.50033778 0-73.33774222-37.48408889-73.33774222-83.67331556 0-46.22222222 32.83626667-83.69948445 73.33774222-83.69948444 40.52081778 0 73.35708445 37.4784 73.35708444 83.69948444z m583.80970667 0c0 46.19036445-32.83057778 83.67331555-73.33091555 83.67331556s-73.33774222-37.48408889-73.33774223-83.67331556c0-46.22222222 32.83626667-83.69948445 73.33774223-83.69948444s73.33091555 37.4784 73.33091555 83.69948444z" fill="#FCBC85" p-id="3431"></path><path d="M791.21863111 342.08881778c0-123.24750222-90.19392-213.44142222-291.61699556-213.44142222-201.42990222 0-291.61699555 90.19392-291.61699555 213.44142222 0 123.27253333-21.03068445 447.95107555 291.61699555 447.95107556 312.66702222 0 291.61699555-324.67740445 291.61699556-447.95107556z" fill="#FDCC9B" p-id="3432"></path><path d="M389.13137778 481.89212445c0 19.09987555-14.13347555 34.58161778-31.55854223 34.58161777-17.43189333 0-31.5904-15.48174222-31.5904-34.58161777s14.15850667-34.58161778 31.5904-34.58161778c17.42620445 0 31.55854222 15.48174222 31.55854223 34.58161778z" fill="#3B2519" p-id="3433"></path><path d="M353.25269333 466.63452445c0 5.19736889-4.24391111 9.44128-9.43445333 9.44128-5.2224 0-9.44128-4.24391111-9.44128-9.44128a9.42990222 9.42990222 0 0 1 9.44128-9.43445333c5.19054222-0.00113778 9.43445333 4.21774222 9.43445333 9.43445333z" fill="#FFFFFF" p-id="3434"></path><path d="M307.06232889 396.19925334c14.92536889 7.46609778 38.89607111-25.34513778 93.76085333 3.19601778 10.01016889 5.21557333 15.98008889-44.52124445-42.82709333-44.52124445-50.93376-0.00113778-59.95292445 36.83100445-50.93376 41.32522667z" fill="#51362A" p-id="3435"></path><path d="M677.10520889 481.89212445c0 19.09987555-14.13347555 34.58161778-31.55854222 34.58161777-17.43189333 0-31.56423111-15.48174222-31.56423112-34.58161777s14.13347555-34.58161778 31.56423112-34.58161778c17.42620445 0 31.55854222 15.48174222 31.55854222 34.58161778z" fill="#3B2519" p-id="3436"></path><path d="M641.22652445 466.63452445c0 5.19736889-4.21888 9.44128-9.44128 9.44128-5.21557333 0-9.43445333-4.24391111-9.43445334-9.44128a9.42762667 9.42762667 0 0 1 9.43445334-9.43445333 9.42762667 9.42762667 0 0 1 9.44128 9.43445333z" fill="#FFFFFF" p-id="3437"></path><path d="M692.13980445 396.19925334c-14.93219555 7.46609778-38.90289778-25.34513778-93.76085334 3.19601778-9.99082667 5.21557333-15.95505778-44.52124445 42.84643556-44.52124445 50.91441778-0.00113778 59.92789333 36.83100445 50.91441778 41.32522667z" fill="#51362A" p-id="3438"></path><path d="M499.60163555 603.49667556c-31.18762667 0-49.96778667-23.29941333-49.96778666-12.01038222 0 11.25717333 9.01347555 32.68266667 49.96778666 32.68266666 40.97365333 0 49.98712889-21.42663111 49.9871289-32.68266666 0-11.28903111-18.79950222 12.01038222-49.9871289 12.01038222z m0 103.66862222c-10.78954667 0-17.27829333-8.06001778-17.27829333-4.16768s3.11978667 11.31406222 17.27829333 11.31406222c14.17784889 0 17.27829333-7.42172445 17.27829334-11.31406222 0-3.89233778-6.49443555 4.16768-17.27829334 4.16768z" fill="#FCBC85" p-id="3439"></path><path d="M499.60163555 678.42616889c-49.44327111 0-79.23143111-20.12273778-79.2314311-15.02776889 0 5.11431111 14.30528 25.19153778 79.2314311 25.19153778 64.94435555 0 79.22460445-20.07836445 79.22460445-25.19153778 0-5.09496889-29.78816 15.02776889-79.22460445 15.02776889z" fill="#F7945E" p-id="3440"></path><path d="M499.60163555 830.6176v189.41952H134.34652445c0-76.68053333 192.39139555-189.41952 365.2551111-189.41952z m0 0v189.41952h365.24942223c-0.00113778-76.68053333-192.38570667-189.41952-365.24942223-189.41952z" fill="#F7941E" p-id="3441"></path><path d="M499.60163555 830.6176c-36.75477333 0-74.41180445 5.14616889-110.91740444 13.93550222 0.24917333 0.29354667 40.50033778 52.21148445 110.91740444 52.21148445 65.21969778 0 108.59064889-44.45070222 114.85411556-51.29102222-37.72643555-9.36504889-76.75107555-14.85596445-114.85411556-14.85596445z" fill="#F36C21" p-id="3442"></path><path d="M424.44231111 837.18257778s21.99552 27.26912 75.15932444 27.26912c53.18314667 0 75.15249778-27.26912 75.15249778-27.26912s-77.9776-28.38869333-150.31182222 0z" fill="#FDCC9B" p-id="3443"></path><path d="M739.35303111 102.33173334S631.14012445-35.19601778 406.18666667 16.66389334c-224.94663111 51.85991111-241.80280889 187.14396445-235.03416889 318.75868444 6.76295111 131.64088889 24.82062222 208.8448 46.14485333 199.30794667 21.31740445-9.53685333 10.23431111-96.43235555 12.48369778-116.48455111 2.24369778-20.05219555 22.54506667-110.71260445 159.35032889-97.17987556 136.81208889 13.50656 252.09400889-36.08348445 252.09400889-36.08348444s46.42019555 58.65472 76.95587555 69.89255111c61.02584889 22.44949333 40.99982222 172.19242667 64.91932445 172.19242667 23.89447111-0.00227555 141.15271111-345.80593778-43.74755556-424.73585778z" fill="#51362A" p-id="3444"></path></svg>