<?xml version="1.0" standalone="no"?><!DOCTYPE svg PUBLIC "-//W3C//DTD SVG 1.1//EN" "http://www.w3.org/Graphics/SVG/1.1/DTD/svg11.dtd"><svg t="1697161407880" class="icon" viewBox="0 0 1024 1024" version="1.1" xmlns="http://www.w3.org/2000/svg" p-id="3139" xmlns:xlink="http://www.w3.org/1999/xlink" width="200" height="200"><path d="M37.6429989 261.50684445v511.08371a33.01072555 33.01072555 0 0 0 32.81654443 33.01072555h287.77585777v102.91579221l182.7240778-102.91579221h287.77585778a33.01072555 33.01072555 0 0 0 33.01072554-33.01072555V261.50684445a33.01072555 33.01072555 0 0 0-33.01072554-33.01072555h-757.30488889a33.01072555 33.01072555 0 0 0-33.78744889 33.01072555z" fill="#FFDEAD" p-id="3140"></path><path d="M828.73533668 228.4961189h-757.30488889a33.01072555 33.01072555 0 0 0-32.81654557 33.01072555v45.63247445a33.01072555 33.01072555 0 0 1 32.81654557-33.01072669h757.30488889a33.01072555 33.01072555 0 0 1 33.01072554 33.01072669V261.50684445a33.01072555 33.01072555 0 0 0-33.01072554-33.01072555z" fill="#FFF3DB" p-id="3141"></path><path d="M540.9594789 805.60128h287.77585778a33.01072555 33.01072555 0 0 0 33.01072554-33.01072555V342.28603221s-67.96325888 446.61570333-824.10306332 358.06928669v72.23523555a33.01072555 33.01072555 0 0 0 32.81654443 33.01072555h287.97003889v102.91579221z" fill="#F2C182" p-id="3142"></path><path d="M612.41799112 648.89742222l115.92590222-40.00123221-149.90753224-86.60461113 33.98163002 126.60584334zM922.91299556 98.97756445a69.90506667 69.90506667 0 0 0-95.73110556 25.63185777l-22.71914667 38.83614777 121.36296334 70.09924779 22.71914667-38.83614777a70.29342777 70.29342777 0 0 0-25.63185778-95.73110556z" fill="#69BAF9" p-id="3143"></path><path d="M790.28755001 155.6200869l149.81044111 86.50752-211.65700779 366.61323776-149.82985956-86.50752z" fill="#F7FBFF" p-id="3144"></path><path d="M790.09336889 155.67834112l-6.01960334 10.48576 67.38071779 38.83614777a38.83614777 38.83614777 0 0 1 14.17519332 53.01134222l-159.22820665 275.73665223a38.83614777 38.83614777 0 0 1-53.20552334 14.36937444l-67.18653667-38.83614777-7.5730489 13.01010887 100.97398557 58.25422222L728.34389334 609.09036999l211.65700778-367.0016z" fill="#D8E3F0" p-id="3145"></path><path d="M609.50528 637.82912l2.91271112 11.06830222 115.92590222-40.00123221-51.06953444-29.51547335-67.7690789 58.44840334zM922.91299556 98.97756445c-1.16508445 0-2.52435001-0.97090333-3.68943446-1.74762667A70.09924779 70.09924779 0 0 1 917.86429668 162.47466667l-22.71914667 38.83614776-83.88608-48.35100444-5.82542222 9.90321778 121.36296221 70.09924778 22.71914666-38.83614776a70.29342777 70.29342777 0 0 0-26.6027611-95.14856334z" fill="#599ED4" p-id="3146"></path><path d="M210.6580389 404.61804999H471.24859222a19.41807445 19.41807445 0 1 0 0-38.83614777H210.6580389a19.41807445 19.41807445 0 1 0 0 38.83614777zM210.6580389 536.46677333H471.24859222a19.41807445 19.41807445 0 0 0 0-38.83614776H210.6580389a19.41807445 19.41807445 0 0 0 0 38.83614776z" fill="#3D3D63" p-id="3147"></path><path d="M999.80856889 332.96535666a113.59573333 113.59573333 0 0 0-26.99112334-145.05301333 89.5173211 89.5173211 0 0 0-162.52928-73.01195776l-13.20428999 22.91332664a19.41807445 19.41807445 0 0 0-23.69004999 8.15559112l-36.50598002 63.10874112H70.45954333a52.62298112 52.62298112 0 0 0-52.23461888 52.4288v511.08371a52.4288 52.4288 0 0 0 52.23461888 52.4288h268.55196444v83.49771776a19.41807445 19.41807445 0 0 0 9.51485668 16.89372445 19.41807445 19.41807445 0 0 0 9.90321777 2.52435001 19.41807445 19.41807445 0 0 0 9.51485668-2.52435001l178.25792-100.39144221h282.53297778a52.4288 52.4288 0 0 0 52.4288-52.4288V383.06398777L956.70044445 251.79780779a19.41807445 19.41807445 0 0 0-4.8545189-24.46677334l2.13598891-3.88361557a74.37122333 74.37122333 0 0 1 11.84502442 90.09986446l-60.39020999 104.66341888a64.66218667 64.66218667 0 0 0 23.69004999 88.35223666 19.41807445 19.41807445 0 0 0 27.57366557-7.18468665 19.41807445 19.41807445 0 0 0-7.96140999-26.2144 26.2144 26.2144 0 0 1-9.51485668-35.34089557z m-157.48058112 439.62519779a13.59265223 13.59265223 0 0 1-13.59265109 13.5926511H540.9594789a19.41807445 19.41807445 0 0 0-9.51485668 2.52435l-153.59696554 86.60461v-69.71088555a19.41807445 19.41807445 0 0 0-19.41807446-19.41807445H70.45954333a13.59265223 13.59265223 0 0 1-13.39847111-13.5926511V261.50684445a13.59265223 13.59265223 0 0 1 13.39847111-13.59265224h643.90333667L561.73681778 512a19.41807445 19.41807445 0 0 0-1.94180778 14.75773667L587.75703666 629.47934777H210.6580389a19.41807445 19.41807445 0 1 0 0 38.8361489h401.5657711a19.41807445 19.41807445 0 0 0 6.60214556 0l116.50844444-40.19541333a19.41807445 19.41807445 0 0 0 10.48576-8.54395335l97.09037-168.35470222z m-233.01688889-210.10356224l72.6235978 41.94304-56.11823446 19.41807446z m235.34705778-194.18073998v1.55344555l-123.30476999 212.43372999-116.50844445-67.18653554L797.27805668 181.89274112l116.50844444 67.18653554z m86.99297223-183.5008L917.86429668 207.33041778l-87.57551446-50.48699221 12.8159289-22.52496669a50.68117333 50.68117333 0 1 1 87.76969443 50.68117333z" fill="#3D3D63" p-id="3148"></path></svg>