<?xml version="1.0" standalone="no"?><!DOCTYPE svg PUBLIC "-//W3C//DTD SVG 1.1//EN" "http://www.w3.org/Graphics/SVG/1.1/DTD/svg11.dtd"><svg t="1697161461055" class="icon" viewBox="0 0 1024 1024" version="1.1" xmlns="http://www.w3.org/2000/svg" p-id="3285" xmlns:xlink="http://www.w3.org/1999/xlink" width="200" height="200"><path d="M255.16581406 960.10256187c-40.37054625 0-78.34484719-15.71059406-106.91979093-44.23303781l-40.05179719-40.05367218c-58.97050969-58.97050969-58.99300969-154.94407219-0.050625-213.93895688l123.51163406-123.50600906c28.52431969-28.52806969 66.51174469-44.23866375 106.96666594-44.23866375 31.98181219 0 62.47300313 9.78560625 88.17545344 28.30119469a7.31998594 7.31998594 0 0 1 0.89437312 11.11122843l-68.67924094 68.68111594a7.31248594 7.31248594 0 0 1-7.34436093 1.81499625 43.93116375 43.93116375 0 0 0-13.04622469-1.96499625c-11.5612275 0-22.43995594 4.49249156-30.643065 12.64872563l-123.48725906 123.53975906c-16.86184219 16.86184219-16.83934219 44.32116375 0.046875 61.209255l40.04617218 40.04617219c8.18810906 8.14498406 19.0537125 12.63747563 30.58119 12.63747468 5.74873875 0 11.3268525-1.09499813 16.58059313-3.25499343a44.22553875 44.22553875 0 0 0 14.02872187-9.41060625L409.24926312 716.01741406c11.4899775-11.4862275 15.59997-28.22994469 10.73247938-43.70053968a7.30873594 7.30873594 0 0 1 1.80562125-7.36873594l68.67924094-68.67924094a7.22623594 7.22623594 0 0 1 5.75436375-2.12062031 7.31248594 7.31248594 0 0 1 5.34373968 3.00186937c43.61803969 60.23613281 36.90180281 142.33284656-15.97121906 195.20961844l-123.50600906 123.50413406c-28.52431969 28.52994469-66.49861969 44.23866375-106.92166594 44.23866281z m83.45608688-451.33599281c-36.54555375 0-70.86173625 14.18809687-96.62231063 39.95054719l-123.50600906 123.50413313c-53.24052094 53.28927094-53.22177094 139.97972625 0.046875 193.25024812l40.04617125 40.04804625c25.80744938 25.76057438 60.11050781 39.95054719 96.57918656 39.95054719 36.51555375 0 70.81298625-14.18809687 96.57356157-39.95054719l123.50600906-123.50413406c45.70491094-45.70678594 53.24614594-115.55602406 19.30683656-169.13966906l-59.41863375 59.42050874c4.50186656 19.4230875-1.25249719 39.78742219-15.53809406 54.06739407l-123.50225906 123.50413406a58.81113469 58.81113469 0 0 1-18.73871344 12.54935062 57.93363656 57.93363656 0 0 1-22.18870688 4.37436657c-15.42372 0-29.95681688-6.00748781-40.91242031-16.91059219l-40.06117125-40.06117125c-22.59370594-22.59370594-22.61620594-59.33613375-0.046875-81.90171563l123.50225906-123.55475812c10.97435344-10.91810344 25.52245031-16.92184219 40.97429438-16.92184219 4.41186656 0 8.77873313 0.48749906 13.02747469 1.45312219l59.41863375-59.41863375c-21.61120781-13.57497375-46.48115906-20.70933469-72.44610844-20.70933469z" fill="#4A555F" p-id="3286"></path><path d="M255.16581406 928.39824969c-31.91431312 0-61.92925406-12.41810063-84.52296-34.9649325l-40.03117125-40.03492125c-46.61615906-46.61428406-46.62928406-122.47663594-0.0375-169.111545l123.49663313-123.49663406c22.54120594-22.54120594 52.56552188-34.95180656 84.551085-34.95180657 15.20997 0 29.98119188 2.79186937 43.74741468 8.19373407l-36.66930375 36.66930375a75.95985187 75.95985187 0 0 0-7.07811093-0.328125c-19.99683563 0-38.82179906 7.769985-53.00239594 21.87558281l-123.54913406 123.60350812c-29.21806781 29.21806781-29.19931781 76.794225 0.0525 106.04416782l40.04617125 40.04617218c14.22372188 14.15247281 33.02993531 21.92433188 52.99677187 21.92433188a74.91547875 74.91547875 0 0 0 28.64244375-5.63998875 75.99360187 75.99360187 0 0 0 24.26432813-16.19246813l123.59225812-123.59413406c16.10621813-16.10246812 23.82745312-38.1843 21.69745781-60.22675687l36.72555375-36.72555375c17.33059125 43.33491562 7.72686 93.81544219-26.9136975 128.45787468l-123.50600906 123.50413313c-22.53933094 22.53745594-52.54864781 34.94805656-84.502335 34.9480575z" fill="#F58E6F" p-id="3287"></path><path d="M676.40624094 538.858385c-31.95743719 0-62.44300312-9.80623125-88.1717025-28.35369469a7.31061094 7.31061094 0 0 1-0.89437313-11.10935343l68.67924094-68.67924094a7.31248594 7.31248594 0 0 1 7.34061094-1.81499625c15.77246906 4.88999062 32.41493625 0.58874906 43.62741468-10.62185438l123.50600813-123.50600812c8.17873406-8.17873406 12.68435062-19.0387125 12.68435062-30.57931594 0-11.5387275-4.50561656-22.40058094-12.68435062-30.58119l-40.04617125-40.04617219c-8.17873406-8.21623406-19.0687125-12.73497469-30.676815-12.73497469-11.5087275 0-22.34995594 4.50561656-30.53431594 12.68435063l-123.50600812 123.50600812c-11.4506025 11.4112275-15.519345 28.11369469-10.63122938 43.59741469a7.32373594 7.32373594 0 0 1-1.80562125 7.37811094l-68.67924093 68.62861594a7.24686094 7.24686094 0 0 1-5.77873875 2.11687125 7.31811094 7.31811094 0 0 1-5.34936469-3.03936938c-42.56054156-59.54988375-35.72993062-143.39409469 15.89996906-195.02399437l123.50600813-123.55663313c28.49994469-28.49431969 66.45549562-44.18803875 106.87666687-44.18803875 40.45117125 0 78.45922219 15.72559406 107.01916594 44.28553781l40.04617125 40.04804719c28.52806969 28.47556969 44.23866375 66.44987063 44.23866375 106.92166594 0 40.41929625-15.71059406 78.39359719-44.23866375 106.92166687l-123.50600813 123.50413313c-28.52056969 28.53369469-66.48924469 44.24241375-106.92166687 44.24241375z m-72.44610844-35.38868062c21.62995781 13.60684875 46.49990906 20.75620969 72.44610844 20.75620968 36.52117875 0 70.81861125-14.18809687 96.57918656-39.95054718l123.50600906-123.50413407c25.76057438-25.76619937 39.95054719-60.06363281 39.95054719-96.57543656 0-36.55867875-14.18622188-70.85611125-39.94679719-96.57168656l-40.05179719-40.05367125c-25.79807437-25.79432438-60.12925781-39.99929719-96.67293562-39.99929719-36.51180375 0-70.79423719 14.17122188-96.53043656 39.90179719l-123.50600907 123.55663406c-44.57616281 44.58178781-52.17364781 115.76039906-19.15871249 168.946545l59.37175875-59.32675969c-4.52999156-19.44183656 1.19062312-39.77429719 15.448095-53.98114406l123.49663406-123.49663406c10.94622844-10.94435344 25.46620031-16.97246719 40.88054531-16.97246719 15.534345 0 30.10494094 6.04873781 41.03616938 17.03434219l40.03117218 40.03492219c10.94622844 10.94435344 16.97246719 25.47932531 16.97246719 40.92741937 0 15.44997-6.02623781 29.98306687-16.97246719 40.92742031l-123.50600906 123.50413407c-10.91247844 10.91247844-25.44557531 16.92184219-40.92742031 16.92184125a57.99363656 57.99363656 0 0 1-13.02747375-1.49624625l-59.41863469 59.41675875z" fill="#4A555F" p-id="3288"></path><path d="M676.40624094 507.15594687c-15.200595 0-29.98119188-2.80311937-43.76241375-8.22748406l36.65055281-36.64867781c2.36812031 0.22875 4.73999063 0.34312406 7.11186094 0.34312406 20.03996062 0 38.85929906-7.784985 52.99864687-21.92433187l123.50600906-123.50600907c14.17122188-14.16934688 21.97308188-32.99056031 21.97308188-52.99864687 0-20.00996063-7.80186-38.83117406-21.97308188-53.00052094l-40.04617218-40.04617218c-14.10934781-14.18622188-32.98118531-22.02183188-53.09427094-22.02183188-19.97808563 0-38.78429906 7.80186-52.94989688 21.97120688l-123.50600906 123.50600906a74.45610469 74.45610469 0 0 0-21.61120781 60.13863281l-36.46492875 36.43867875c-16.66684219-43.29554063-7.13061094-94.37981531 26.57057344-128.08474969l123.50600906-123.55663406c22.50745594-22.50183094 52.50177281-34.89743156 84.45546-34.89743156 31.98556219 0 62.02862906 12.43122562 84.603585 35.00243156l40.04617125 40.04617125c22.54120594 22.50370594 34.94993156 52.50927281 34.94993156 84.502335 0 31.95368719-12.41435063 61.96300406-34.95368156 84.506085l-123.50038406 123.50413406c-22.54308094 22.53933094-52.55239781 34.95368156-84.509835 34.95368156z" fill="#F58E6F" p-id="3289"></path><path d="M386.14743312 718.24303438a7.29373594 7.29373594 0 0 1-5.17311468-2.14312032l-73.0798575-73.0779825a7.31436094 7.31436094 0 0 1 0-10.34622937l315.82438312-315.82250813a7.31436094 7.31436094 0 0 1 10.34623031 0l73.07985657 73.07798157a7.31436094 7.31436094 0 0 1 0 10.34623031l-315.82438313 315.82250812a7.29373594 7.29373594 0 0 1-5.17311469 2.14312032z m-62.73550218-80.3960925l62.73362718 62.73175218L691.62371187 395.10241625l-62.73362812-62.73175313L323.41193094 637.84694187z" fill="#4A555F" p-id="3290"></path><path d="M347.55250906 637.84694187L628.88633375 356.51686625l38.587425 38.587425-281.33007563 281.33007469z" fill="#F58E6F" p-id="3291"></path><path d="M60.99494375 676.74374094a499.0959 499.0959 0 0 1-4.88249062-14.02497282l13.88997281-4.60686562a473.80407469 473.80407469 0 0 0 4.73999062 13.60684781l-13.74747281 5.02499063z m-9.32248219-28.21494469a495.82403156 495.82403156 0 0 1-3.9956175-14.30247281l14.14684782-3.7256175a465.02534156 465.02534156 0 0 0 3.8831175 13.87309781l-14.03434782 4.1549925z m-7.544985-28.73056969a460.55535094 460.55535094 0 0 1-3.10124437-14.53497094l14.35684687-2.82561937a451.64911781 451.64911781 0 0 0 3.00561938 14.07747187l-14.26122188 3.28311844z m-5.74873875-29.15056781a478.71656531 478.71656531 0 0 1-2.18624625-14.69434594l14.50872188-1.92374625c0.63374906 4.76999062 1.33874719 9.51748125 2.12062125 14.24247188l-14.44309688 2.37562031zM34.46187031 561.19896688a485.83217625 485.83217625 0 0 1-1.27687219-14.79372188l14.59497094-1.03874812c0.34312406 4.80374062 0.75749813 9.58873125 1.23937313 14.35497281l-14.55747188 1.47749719zM32.36749906 531.57589906c-0.195-4.92936562-0.31874906-9.87935531-0.36749906-14.84809594l14.63247187-0.1425c0.046875 4.82061563 0.16125 9.62248125 0.35812407 14.40372188l-14.62309688 0.58687406z m14.35684688-29.39056781l-14.63247094-0.31499906c0.10875-4.96499062 0.28499906-9.91310531 0.54374906-14.84247094l14.61372094 0.76124813a457.1297325 457.1297325 0 0 0-0.52499906 14.39622187z m1.48124718-28.77369375l-14.58559593-1.19624719c0.40499906-4.95186562 0.89062312-9.88123031 1.44749718-14.78809593l14.53872094 1.64812125a474.28032375 474.28032375 0 0 0-1.40062219 14.33622187z m3.24749344-28.61806875l-14.48059594-2.09624625c0.71062406-4.91624063 1.49624719-9.80810625 2.35874532-14.67184594l14.40372187 2.54812032a471.72657844 471.72657844 0 0 0-2.28187125 14.21997187z m4.99686563-28.35931969l-14.32309688-2.99624437c1.01999813-4.85624062 2.10562125-9.68623125 3.26249344-14.48809594l14.22372187 3.4256175a486.70217438 486.70217438 0 0 0-3.16311843 14.05872281z m6.75936187-27.99557062L49.09996625 384.55556188a488.47404563 488.47404563 0 0 1 4.1587425-14.25747282l13.98559781 4.31061657a468.505335 468.505335 0 0 0-4.0349925 13.82997281z m8.49373313-27.52307063l-13.84309782-4.74936562a484.09030406 484.09030406 0 0 1 5.05311563-14.01934782l13.68934781 5.18061469a469.98845719 469.98845719 0 0 0-4.89936562 13.58809875z m10.21685531-27.0168225l-13.51872375-5.60623875c1.90499625-4.59374062 3.8831175-9.14998219 5.92123875-13.66872375l13.33684875 6.02623875a462.52972125 462.52972125 0 0 0-5.73936375 13.24872375z m11.87622656-26.31182344l-13.13809875-6.44061281a491.674665 491.674665 0 0 1 6.75373688-13.26372375l12.93747468 6.83998688a462.58597125 462.58597125 0 0 0-6.55311281 12.86434969z m13.49997375-25.51307531l-12.71809969-7.24123594a472.85532656 472.85532656 0 0 1 7.56936-12.81747468l12.47997563 7.64061a449.2659975 449.2659975 0 0 0-7.33123594 12.41810062z m15.03747094-24.60932719l-12.24185156-8.01748406a493.60028625 493.60028625 0 0 1 8.33623406-12.31310062l11.99435156 8.38873312a459.64035188 459.64035188 0 0 0-8.08873406 11.94185156z m16.53371719-23.62870312l-11.72810157-8.75060813a461.40472406 461.40472406 0 0 1 9.08435719-11.7768525l11.4412275 9.11810719a465.55409063 465.55409063 0 0 0-8.79748312 11.40935344z m17.95309031-22.54870687l-11.15622844-9.46498125a470.08033219 470.08033219 0 0 1 9.79310625-11.1899775l10.85060344 9.81185531a474.38719875 474.38719875 0 0 0-9.48748125 10.84310344z m19.3012125-21.39745782l-10.55622938-10.13248031a466.67721375 466.67721375 0 0 1 10.45497938-10.56372937l10.23185531 10.46060437a469.85533219 469.85533219 0 0 0-10.13060531 10.23560531zM196.69967844 169.73160594l-9.91685531-10.76622938a485.98217625 485.98217625 0 0 1 11.0793525-9.89435531l9.57373218 11.06622844a468.685335 468.685335 0 0 0-10.73622937 9.59435625z m21.76870781-18.85496344l-9.24185719-11.3456025c3.8399925-3.12186844 7.72686-6.18748781 11.66060157-9.19123219l8.87810812 11.6268525a475.15782188 475.15782188 0 0 0-11.2968525 8.90998219z m22.86933-17.46371531l-8.51623312-11.89872657a479.51156344 479.51156344 0 0 1 12.19872562-8.45060906l8.14498406 12.15185156a479.12718938 479.12718938 0 0 0-11.82747656 8.19748407z m23.89870313-16.02184407l-7.76436-12.39935062c4.18686656-2.62499531 8.42248312-5.18811469 12.69372562-7.68186l7.37436 12.63747562a466.05096469 466.05096469 0 0 0-12.30372562 7.443735z m24.82307625-14.50684687l-6.98248594-12.85684969a471.79970344 471.79970344 0 0 1 13.13247469-6.87561187l6.58311187 13.06684968a453.212865 453.212865 0 0 0-12.73310062 6.66561188z m25.66495031-12.94122469l-6.17248781-13.26559875a480.52968656 480.52968656 0 0 1 13.52809875-6.04686281l5.76373875 13.45122281a459.88972688 459.88972688 0 0 0-13.11934969 5.86123875z m26.39432344-11.3118525l-5.34373969-13.62372375c4.59186563-1.79999625 9.21748219-3.53249344 13.86559781-5.19186469l4.92561563 13.78122282a463.33034531 463.33034531 0 0 0-13.44747375 5.03436562z m324.34624124-5.73373875a472.5590775 472.5590775 0 0 0-13.66684781-4.56561656l4.42124063-13.94809781c4.73061562 1.49812219 9.42748125 3.06749437 14.09434781 4.70811656l-4.84874062 13.80559781zM369.19934187 68.96367781l-4.48686656-13.92747281c4.70624062-1.51687219 9.44623125-2.96249438 14.20872188-4.33499156l4.0481175 14.06247281a450.79786969 450.79786969 0 0 0-13.76997282 4.19999156z m269.81009719-4.76811562a461.58659813 461.58659813 0 0 0-13.92747281-3.7031175l3.54374344-14.19934781c4.81499063 1.20187219 9.60373125 2.47687031 14.36622187 3.8231175l-3.9824925 14.07934781z m-242.14077656-3.20624344l-3.61124344-14.18059781c4.78686562-1.21874719 9.60748125-2.36437031 14.45247188-3.44249344l3.17249437 14.28559781c-4.70061562 1.04437313-9.36935625 2.15624625-14.01372281 3.33749344z m214.17895687-3.76874344a461.28659906 461.28659906 0 0 0-14.12809781-2.83124437l2.64937031-14.39059688c4.88811563 0.89999812 9.74060625 1.87499625 14.57622094 2.91749438l-3.09749344 14.30434687z m-186.05588718-2.46374437l-2.72436938-14.37559688c4.85811562-0.91874813 9.74060625-1.76437125 14.64372094-2.53687031l2.27624625 14.45622188c-4.75874062 0.74812312-9.48935625 1.56562219-14.19559781 2.45624531z m157.7078175-2.75624531a459.37035281 459.37035281 0 0 0-14.27622282-1.94999625l1.76249719-14.52934594c4.92936562 0.59812406 9.84185531 1.26749719 14.72434594 2.01187031l-2.21062031 14.46747188z m-129.26412282-1.71562125l-1.81874625-14.51809688a482.90530687 482.90530687 0 0 1 14.76747094-1.62187125l1.37249719 14.56684594c-4.79436563 0.45187406-9.56810625 0.97874812-14.32122188 1.57312219z m100.66480313-1.74562125c-4.76811563-0.43124906-9.56060625-0.78562312-14.37184688-1.06874813l0.85687313-14.60997187c4.96311563 0.29249906 9.90748031 0.66187406 14.82934687 1.10249812l-1.31437312 14.57622188z m-71.98860938-0.95437313l-0.92437312-14.60434687c4.92936562-0.31124906 9.87935531-0.54749906 14.84247094-0.70687407l0.46687406 14.62309688c-4.81124062 0.15375-9.60748125 0.38624906-14.38497188 0.68812406z m43.20929063-0.74249906l-3.9056175-0.0975a498.97965 498.97965 0 0 0-9.61310625-0.095625h-0.90937313V32.015h0.90937313c3.29061844 0 6.59248687 0.03375 9.89810625 0.099375l4.03874156 0.0975-0.41812406 14.63059594zM505.35595063 991.983125l-3.06749438-0.0525a469.69783219 469.69783219 0 0 1-11.78435156-0.38062406l0.65812312-14.61934688c3.7968675 0.170625 7.597485 0.29249906 11.41310344 0.37125l2.99061844 0.046875-0.20999907 14.63434594z m14.85747093-0.016875l-0.238125-14.63247094a464.24909344 464.24909344 0 0 0 14.40372188-0.45749906l0.68624906 14.61934594c-4.92936562 0.230625-9.87935531 0.38624906-14.85184594 0.47062406z m-44.54241281-1.29749719a486.53154937 486.53154937 0 0 1-14.80497094-1.33874718l1.54312125-14.55184688c4.76249062 0.50437406 9.55123125 0.93749813 14.35684688 1.30124719l-1.09499719 14.58934687z m74.22360469-0.099375l-1.14374813-14.59122187c4.79624063-0.37312406 9.57935625-0.82124813 14.33809781-1.34249719l1.59187125 14.54809688c-4.91249062 0.53624906-9.83623125 0.99749813-14.78622093 1.38562218z m-103.7810475-3.03374437a480.34218656 480.34218656 0 0 1-14.69434594-2.24999531l2.43937031-14.42809688c4.72499063 0.80062312 9.47435625 1.52624719 14.24809688 2.17874625l-1.99312125 14.49934594z m133.31036531-0.19499906l-2.03812125-14.48997188c4.76811563-0.67124906 9.51185625-1.41562219 14.22747187-2.22749531l2.48624532 14.41872094c-4.86936563 0.84187312-9.75560625 1.60874719-14.67559594 2.29874625z m-162.61468313-4.75874063a487.01717344 487.01717344 0 0 1-14.52372093-3.15374437l3.32436843-14.25184688c4.66874062 1.08937313 9.35998219 2.10749625 14.08497188 3.05811938l-2.88561938 14.34747187z m191.87962594-0.28875l-2.93436937-14.33247187a465.18471656 465.18471656 0 0 0 14.06247187-3.11061844l3.38249344 14.23872187a483.34405594 483.34405594 0 0 1-14.51059594 3.20436844z m-220.82206875-6.47436187a479.9315625 479.9315625 0 0 1-14.30059781-4.0537425l4.2112425-14.01372282c4.59186563 1.37812219 9.20810719 2.68874437 13.86184781 3.9299925l-3.7724925 14.13747282z m249.73638656-0.38812407l-3.8212425-14.12809781a453.46223906 453.46223906 0 0 0 13.84309782-3.9749925l4.2581175 14.00059781a492.53153812 492.53153812 0 0 1-14.27997282 4.1024925z m-278.20258125-8.16560906c-4.70624062-1.57687219-9.37498125-3.22311844-14.01934781-4.93686562l5.06811563-13.72872375c4.50186656 1.66312219 9.03560719 3.26061844 13.59934781 4.78874062l-4.64811563 13.87684875z m306.61627594-0.48562406l-4.68749062-13.86184875c4.55436656-1.54312219 9.07498219-3.15374344 13.56559875-4.83186563l5.12623968 13.70997375a476.41781906 476.41781906 0 0 1-14.00434781 4.98374063z m27.80057063-10.39123031l-5.54436375-13.54309875a461.34847406 461.34847406 0 0 0 13.19997375-5.64748875l5.96436375 13.36122375a477.02719312 477.02719312 0 0 1-13.61997375 5.82936375z m27.0561975-12.07497657l-6.37311282-13.17184875a458.31847969 458.31847969 0 0 0 12.83247469-6.46123781l6.78373688 12.96559969a474.88032281 474.88032281 0 0 1-13.24309875 6.66748687z m26.27057343-13.74559781l-7.17373593-12.75184969a456.8466075 456.8466075 0 0 0 12.41435062-7.24498593l7.57311 12.52310062a481.40155969 481.40155969 0 0 1-12.81372469 7.473735z m25.38370032-15.33747l-7.95560907-12.28497562a465.54846563 465.54846563 0 0 0 11.95685157-8.002485l8.32685906 12.03185156c-4.0631175 2.81249437-8.17498406 5.56686375-12.32810156 8.25560906z m24.39745218-16.88996719l-8.68873218-11.77497656c3.8624925-2.84999438 7.67436-5.75811375 11.4412275-8.72435812l9.05060718 11.4937275a454.33786219 454.33786219 0 0 1-11.8031025 9.00560718z m23.317455-18.36558937l-9.39373218-11.2181025c3.6824925-3.08436938 7.31248594-6.22311281 10.89372937-9.41810719l9.73685531 10.92185438a472.75032656 472.75032656 0 0 1-11.2368525 9.71435531z m22.16995688-19.76996063l-10.07998031-10.61247937a474.28594875 474.28594875 0 0 0 10.29935437-10.07435531l10.39310531 10.29935437a494.80215844 494.80215844 0 0 1-10.61247937 10.38748031z m20.90620875-21.10683375l-10.70810438-9.97498125a470.06158219 470.06158219 0 0 0 9.66560625-10.69122843l11.00435344 9.64123125a487.14842344 487.14842344 0 0 1-9.96185531 11.02497843z m19.57683656-22.35558187l-11.2987275-9.29810719a455.54348531 455.54348531 0 0 0 8.98310719-11.2687275l11.5837275 8.94185719a472.1053275 472.1053275 0 0 1-9.26810719 11.6249775z m18.17808938-23.53120406l-11.85185157-8.58935813a449.2678725 449.2678725 0 0 0 8.26873407-11.80122656l12.11810156 8.20685906a461.31847406 461.31847406 0 0 1-8.53498406 12.18372563z m16.68184312-24.61682719l-12.35622656-7.83560906a466.69408875 466.69408875 0 0 0 7.53186094-12.30185157l12.59434968 7.44561094a467.38033687 467.38033687 0 0 1-7.76998406 12.69184969z m15.148095-25.61994938l-12.82309969-7.05373687a446.20787812 446.20787812 0 0 0 6.74998688-12.74434969l13.04247469 6.63936188a475.39219688 475.39219688 0 0 1-6.96936188 13.15872468z m13.50747375-26.51994843l-13.23372375-6.24936282a458.56785469 458.56785469 0 0 0 5.95498781-13.14747468l13.42309875 5.81998875a449.2997475 449.2997475 0 0 1-6.14436281 13.57684875z m11.85747656-27.32994657l-13.59559781-5.41123968c1.77749625-4.46249156 3.48186844-8.96435719 5.11686469-13.49622375l13.76622281 4.96311562a467.74033687 467.74033687 0 0 1-5.28748969 13.94434781z m10.13060532-28.03869562l-13.90872282-4.53936563a473.73657469 473.73657469 0 0 0 4.25436657-13.76247281l14.04184781 4.10999156a474.65157281 474.65157281 0 0 1-4.38749156 14.19184688z m8.33248406-28.52244375l-14.16559781-3.65436844c1.19624812-4.64249063 2.32499531-9.30935719 3.38624343-14.00622187l14.27059782 3.22499343a486.01967531 486.01967531 0 0 1-3.49124344 14.43559688z m6.52498687-28.97806875l-14.36622187-2.78249438a450.18662063 450.18662063 0 0 0 2.51062031-14.17684687l14.45247188 2.32499531a475.03969688 475.03969688 0 0 1-2.59687032 14.63434594z m4.73436563-29.33244281l-14.50872094-1.87687125c0.61499906-4.74936563 1.15687312-9.51748125 1.62374625-14.30997188l14.56684688 1.42499719a481.91718375 481.91718375 0 0 1-1.68187219 14.76184594z m2.90249437-29.55556688l-14.59497093-0.98999812c0.31874906-4.77561562 0.57187406-9.56998125 0.74812312-14.38497188l14.62309688 0.54374906a478.60594031 478.60594031 0 0 1-0.77624907 14.83122094z m1.09499813-29.69806687l-14.63247094-0.0675 0.00937406-3.09561938c0-3.7874925-0.046875-7.56186-0.13874906-11.3268525l14.63247094-0.34687406c0.09 3.8793675 0.13875 7.773735 0.13875 11.67560156l-0.009375 3.16124438z m-15.324345-28.87869375c-0.26249906-4.81124062-0.59999906-9.59810625-1.00499813-14.36809688l14.57622188-1.24874812c0.42374906 4.91811562 0.77249813 9.85873031 1.04249812 14.81622187l-14.61372187 0.80062313z m-2.45812031-28.70431875a458.41410469 458.41410469 0 0 0-1.88624625-14.26872282l14.47122187-2.14874531c0.72937312 4.88811563 1.38187219 9.80060625 1.95374625 14.73559594l-14.53872187 1.68187219z m-4.22061657-28.47556969c-0.86249813-4.73999063-1.78687125-9.45373125-2.78249437-14.13934781l14.31934687-3.03936844a490.03029281 490.03029281 0 0 1 2.85749438 14.56872094l-14.39434688 2.60999531z m-5.98686375-28.17181969a486.95342437 486.95342437 0 0 0-3.6581175-13.93497281l14.09997282-3.9243675a486.28030031 486.28030031 0 0 1 3.7631175 14.36434687l-14.20497282 3.49499344z m-7.739985-27.74432062a462.96097031 462.96097031 0 0 0-4.51124062-13.67809875l13.82434781-4.79624063c1.61999719 4.67061562 3.17249344 9.37498125 4.65374063 14.10747281l-13.96684782 4.36686657z" fill="#4A555F" p-id="3292"></path></svg>