<?xml version="1.0" standalone="no"?><!DOCTYPE svg PUBLIC "-//W3C//DTD SVG 1.1//EN" "http://www.w3.org/Graphics/SVG/1.1/DTD/svg11.dtd"><svg t="1697183925587" class="icon" viewBox="0 0 1077 1024" version="1.1" xmlns="http://www.w3.org/2000/svg" p-id="3354" xmlns:xlink="http://www.w3.org/1999/xlink" width="210.3515625" height="200"><path d="M891.311158 587.829895a79.225263 79.225263 0 0 1-110.538105-0.862316 78.578526 78.578526 0 0 1-1.401264-110.214737l94.477474-95.824842a130.694737 130.694737 0 0 0 35.085474-126.976A131.664842 131.664842 0 0 0 688.074105 195.637895L556.570947 328.326737c-48.343579 48.289684-50.822737 125.359158-5.658947 177.960421l7.329684 8.946526c29.318737 30.989474 28.564211 79.548632-1.616842 109.67579-30.827789 30.72-80.842105 30.72-113.448421-1.832421-4.850526-5.497263-9.593263-10.994526-14.336-16.599579l-0.91621-1.077895a459.991579 459.991579 0 0 1-9.431579-11.479579 74.752 74.752 0 0 1-7.976421-11.317895 287.258947 287.258947 0 0 1 34.223157-365.406316l131.503158-132.688842a289.953684 289.953684 0 0 1 409.168842 0 287.797895 287.797895 0 0 1 0.161685 407.767579l-94.261895 95.555369z" fill="#528BC8" p-id="3355"></path><path d="M671.636211 806.804211l-131.449264 132.742736a290.061474 290.061474 0 0 1-409.222736 0 287.744 287.744 0 0 1-0.215579-407.713684l94.208-95.501474a79.171368 79.171368 0 0 1 133.497263 34.169264 78.578526 78.578526 0 0 1-21.450106 76.746105l-94.208 95.555368a130.694737 130.694737 0 0 0 0.377264 184.858948c51.2 50.984421 134.036211 51.2 185.128421 0.646737l131.341473-132.527158 0.161685-0.161685c9.916632-9.701053 18.324211-20.749474 25.061052-32.875789 20.749474-38.534737 15.521684-81.111579-7.275789-124.01179a209.542737 209.542737 0 0 0-19.240421-29.803789 78.578526 78.578526 0 0 1 36.810105-130.263579c27.324632-7.275789 56.373895 0.538947 78.039579 22.204632 8.407579 9.593263 16.653474 19.294316 24.737684 29.157052 4.096 5.173895 6.305684 8.084211 7.976421 11.317895a287.312842 287.312842 0 0 1-34.223158 365.460211z" fill="#66CC8F" p-id="3356"></path></svg>