<?xml version="1.0" standalone="no"?><!DOCTYPE svg PUBLIC "-//W3C//DTD SVG 1.1//EN" "http://www.w3.org/Graphics/SVG/1.1/DTD/svg11.dtd"><svg t="1697161486131" class="icon" viewBox="0 0 1024 1024" version="1.1" xmlns="http://www.w3.org/2000/svg" p-id="3577" xmlns:xlink="http://www.w3.org/1999/xlink" width="200" height="200"><path d="M452 716h120l60 245.32000031H392z" fill="#CACBCC" p-id="3578"></path><path d="M168.00000031 930.68h687.99999938c8.80000031 0 16.00000031 7.15999969 16.00000031 16.00000031V992H152v-45.31999969c0-8.83999969 7.2-16.00000031 16.00000031-16.00000031z" fill="#EDEEF0" p-id="3579"></path><path d="M32 32m64.00000031 0l831.99999938 0q64.00000031 0 64.00000031 64.00000031l0 672q0 64.00000031-64.00000031 63.99999938l-831.99999938 0q-64.00000031 0-64.00000031-63.99999938l0-672q0-64.00000031 64.00000031-64.00000031Z" fill="#111314" fill-opacity=".72" p-id="3580"></path><path d="M32 711.99999969h960v56.00000062a64.00000031 64.00000031 0 0 1-64.00000031 63.99999938H96.00000031A64.00000031 64.00000031 0 0 1 32 768.00000031V711.99999969z" fill="#EDEEF0" p-id="3581"></path><path d="M111.99999969 111.99999969m32.00000062 0l735.99999938 0q31.99999969 0 32.00000062 32.00000062l0 495.99999938q0 31.99999969-32.00000062 32.00000062l-735.99999938 0q-31.99999969 0-32.00000062-32.00000062l0-495.99999938q0-31.99999969 32.00000062-32.00000062Z" fill="#FFFFFF" p-id="3582"></path><path d="M394.28 462.63999969c16.36000031-24.96 39.67999969-52.72000031 68.20000031-79.27999969 4.15999969-3.88000031 8.08000031-7.60000031 11.71999969-11.11999969a150.91999969 150.91999969 0 0 0-4.39999969 21.6h79.2a90.36 90.36 0 0 0 0-18.32000062 54.84 54.84 0 0 0-4.68-17.83999969c-5.28-11.76-13.68-18.6-25.2-20.47999969a37.27999969 37.27999969 0 0 0-11.60000062 0.03999938c15.52000031-19.44-2.52-10.32-53.4 37.16000062a474.48 474.48 0 0 0-62.47999969 70.2 168.24 168.24 0 0 1-0.6-18.36c0-14.28 1.75999969-28.39999969 5.32000031-42.40000031 3.6-13.96000031 9.12-26.95999969 16.56-39.04000031 9-13.96000031 19.99999969-25.08 33.07999969-33.31999969a120.04000031 120.04000031 0 0 1 43.32-16.68 129.19999969 129.19999969 0 0 1 40.8-1.2c14.11999969 1.75999969 27.24 5.64 39.36 11.68000031 10.87999969 5.4 20.64 12.52000031 29.35999969 21.43999969 8.68000031 8.88 15.52000031 19.2 20.48000062 30.96 7.8 17.44000031 10.39999969 36 7.92 55.72000031a24.24 24.24 0 0 1-7.68 16.92 25.44 25.44 0 0 1-17.48000062 5.95999969h-135.12c0 10.15999969 1.00000031 20.56000031 3.04000031 31.2 1.99999969 10.60000031 6.12 20.23999969 12.36 28.8 4.32 6 9.31999969 10.56 14.88 13.60000031 5.59999969 3 11.52 4.48000031 17.71999969 4.47999938 6.19999969-0.31999969 12.28000031-2.11999969 18.16000031-5.47999969a35.59999969 35.59999969 0 0 0 13.99999969-14.52 79.99999969 79.99999969 0 0 0 9.32000062-33.31999969h74.55999938a107.35999969 107.35999969 0 0 1-12.39999938 39.99999938 106.00000031 106.00000031 0 0 1-26.76 33.32000062c-11.20000031 8.92000031-24 14.88-38.4 17.88-14.47999969 3-28.51999969 4.39999969-42.20000062 4.03999969a148.8 148.8 0 0 1-54.51999938-11.20000031 94.39999969 94.39999969 0 0 1-42.88000031-35.47999969 117.43999969 117.43999969 0 0 1-17.68000031-38.80000031 162 162 0 0 1-1.87999969-8.16z" fill="#5BADFF" p-id="3583"></path><path d="M646.16 338.19999969l-11.47999969-4.2c7.12000031-20.35999969 6.72-34.96000031-0.24-41.91999938-20.28-20.28-94.12000031 16.03999969-162.08000062 84-67.99999969 67.99999969-104.28 141.79999969-84 162.07999969 4.87999969 4.87999969 13.48000031 6.55999969 25.56 4.56l2.24000062 12c-15.6 2.56000031-28.12000031 0.12-36.28000031-8.08000031-27.64000031-27.6 11.20000031-106.60000031 83.80000031-179.19999938 72.64000031-72.64000031 151.60000031-111.48 179.19999938-83.84000062 11.20000031 11.20000031 11.76 30.31999969 3.28000031 54.6z" fill="#FFC13C" p-id="3584"></path><path d="M433.47999969 550.11999969c-23.76 8.08000031-42.96 7.63999969-54-3.39999938-13.39999969-13.36000031-11.20000031-38.71999969 2.80000031-69.6a139.99999969 139.99999969 0 0 0 6 17.28c-7.56 20.28-8.11999969 36.04000031-0.31999969 43.83999938 6.40000031 6.43999969 18.31999969 7.2 33.67999969 2.96000062 3.76000031 3.24 7.72000031 6.24 11.83999969 8.91999938z m135.64000031-261.84c32.56000031-15.6 59.47999969-18.52000031 73.39999969-4.59999938 14.32000031 14.32000031 10.8 42.43999969-6.07999969 76.32a120.40000031 120.40000031 0 0 0-3.43999969-8.68000031 116.92000031 116.92000031 0 0 0-2.96000062-6.40000031c10.87999969-24.55999969 12.88000031-43.84000031 4.00000031-52.75999969-8.71999969-8.68000031-27.19999969-6.96-50.88 3.16000031a121.99999969 121.99999969 0 0 0-13.99999969-7.04000062zM765.72000031 606.00000031l81.39999938 83.19999938a7.99999969 7.99999969 0 0 1-5.71999969 13.60000031h-40.48000031a7.99999969 7.99999969 0 0 0-5.88 2.59999969l-29.19999938 31.60000031a7.99999969 7.99999969 0 0 1-13.84000031-5.44000031V611.6a7.99999969 7.99999969 0 0 1 13.72000031-5.59999969z" fill="#FFC13C" p-id="3585"></path><path d="M260 207.99999969a28.00000031 28.00000031 0 1 0 0-55.99999969 28.00000031 28.00000031 0 0 0 0 55.99999969z" fill="#E6C029" p-id="3586"></path><path d="M180.00000031 207.99999969a28.00000031 28.00000031 0 1 0 0-55.99999969 28.00000031 28.00000031 0 0 0 0 55.99999969z" fill="#EA7E7A" p-id="3587"></path><path d="M339.99999969 207.99999969a28.00000031 28.00000031 0 1 0 0-55.99999969 28.00000031 28.00000031 0 0 0 0 55.99999969z" fill="#7FD162" p-id="3588"></path></svg>