<?xml version="1.0" standalone="no"?><!DOCTYPE svg PUBLIC "-//W3C//DTD SVG 1.1//EN" "http://www.w3.org/Graphics/SVG/1.1/DTD/svg11.dtd"><svg t="1698288118729" class="icon" viewBox="0 0 1024 1024" version="1.1" xmlns="http://www.w3.org/2000/svg" p-id="2461" width="200" height="200" xmlns:xlink="http://www.w3.org/1999/xlink"><path d="M957.57371187 694.339985c0 42.60625969-34.86069 77.46694969-77.46695062 77.46695062H143.88292625c-42.60625969 0-77.46694969-34.86069-77.46695063-77.46695062V128.83368781c0-42.60719719 34.86069-77.46694969 77.46695063-77.46695062h736.2228975c42.60719719 0 77.46788719 34.8597525 77.46788813 77.46695062V694.3390475z" fill="#F0F0FF" p-id="2462"></path><path d="M562.660265 46.30802375H151.93974406c-42.60719719 0-77.46694969 34.8597525-77.46695062 77.46694969V534.48705781L562.660265 46.30802375z" fill="#FFFFFF" p-id="2463"></path><path d="M938.20697375 694.339985c0 32.03602219-26.06419031 58.1002125-58.1002125 58.1002125H143.88292625c-32.03602219 0-58.1002125-26.06419031-58.1002125-58.1002125V128.83368781c0-32.03695969 26.06419031-58.1002125 58.1002125-58.1002125h736.2228975c32.03695969 0 58.10115 26.06325281 58.10115 58.1002125V694.3390475z m38.73347531-565.50629719C976.94044906 75.43969156 933.5007575 32 880.10676125 32H143.88292625C90.48893 32 47.04923844 75.43969156 47.04923844 128.83368781V694.3390475c0 53.39399625 43.43969156 96.83368781 96.83368781 96.83368781h736.2228975c53.39493375 0 96.83368781-43.43969156 96.83368781-96.83368781V128.83368781z" fill="#6E6E96" p-id="2464"></path><path d="M168.53243844 266.13146281s105.56456344 25.85794125 105.56456343-105.56362594h478.67472657s-25.85887875 105.56362594 105.5626875 105.56362594l-2.06436 292.90479563s-105.56362594-25.85044125-105.56362594 105.571125H274.09700188s25.85419125-105.57112594-105.56456344-105.571125V266.13146281z" fill="#D6D6E3" p-id="2465"></path><path d="M163.92372125 284.94414125c2.0484225 0.49968375 50.58901594 11.94179062 88.45905937-17.77487344 27.25668187-21.38797313 41.07627094-57.25178062 41.07627094-106.59768093a19.36673719 19.36673719 0 0 1-19.36673719 19.36673812h478.67097657a19.38642469 19.38642469 0 0 1-18.81642938-23.97170531c-0.49968375 2.0484225-11.93804062 50.58526594 17.78237438 88.45812187 21.38422312 27.25668187 57.24709312 41.07345844 106.59768 41.07345844a19.37048719 19.37048719 0 0 1-19.36673719-19.50642375l-2.06436 292.90948313a19.37798719 19.37798719 0 0 1 23.98389188-18.67393032c-2.04186094-0.50343375-50.58995344-11.94085313-88.45905938 17.77487438-27.25668187 21.38422312-41.07345844 57.25553062-41.07345844 106.5986175 0-10.70242406 8.66056312-19.36673719 19.36673719-19.36673719H274.09700188a19.35548719 19.35548719 0 0 1 18.81267843 23.96795531c0.49968375-2.04092344 11.94085313-50.58995344-17.77487343-88.46281031-21.38422312-27.25668187-57.25271813-41.07345844-106.59861844-41.07345844a19.32830063 19.32830063 0 0 1 13.6967775 5.67839719 19.35548719 19.35548719 0 0 1 5.66995969 13.68834094v-292.90104563a19.36298719 19.36298719 0 0 1-23.97920438 18.81267844z m4.60871719 293.45885437c36.84348844 0 62.45768156 8.83587469 76.1272725 26.25731344 17.9248725 22.84108781 10.70617406 55.01679656 10.62836156 55.33460719a19.36673719 19.36673719 0 0 0 18.81267937 23.96795531h476.60192813a19.36298719 19.36298719 0 0 0 19.36673813-19.36580062c0-36.85098844 8.82743719-62.45768156 26.24981343-76.12258406 22.83733781-17.9304975 55.01585906-10.71836156 55.33366969-10.6293a19.38642469 19.38642469 0 0 0 16.51207031-3.53247469 19.34330062 19.34330062 0 0 0 7.46807157-15.14051719l2.06436093-292.90948313a19.38173719 19.38173719 0 0 0-19.36673812-19.50548624c-36.85098844 0-62.45768156-8.83118719-76.12633406-26.25356438-17.92956-22.84483781-10.70617406-55.01679656-10.6246125-55.33460625a19.36673719 19.36673719 0 0 0-18.81267844-23.97545531H274.09700188a19.36673719 19.36673719 0 0 0-19.36673813 19.36579969c0 36.84723844-8.83587469 62.45768156-26.25356344 76.12727249-22.84483781 17.9248725-55.02148406 10.70617406-55.33835718 10.62836157a19.36673719 19.36673719 0 0 0-23.97639188 18.81549187v292.90573313a19.36673719 19.36673719 0 0 0 19.37048719 19.36673719z" fill="#6E6E96" p-id="2466"></path><path d="M163.92372125 321.74169313c2.0484225 0.49874625 50.58526594 11.94085313 88.45905937-17.77487438 27.25668187-21.38516063 41.07627094-57.25271813 41.07627094-106.5986175l-19.36673719 19.36673719h478.67097657l-18.80611688-23.96795438c-0.50624625 2.0484225-11.94366562 50.58526594 17.78331094 88.45905938 21.38422312 27.25668187 57.24803062 41.07252094 106.59768094 41.07252094v-38.73347532c-36.85098844 0-62.45674406-8.83118719-76.12633406-26.25356343-17.92956-22.84483781-10.71367406-55.01679656-10.6246125-55.33460719l5.87245875-23.97170531H254.73026375v19.36673812c0 36.69255187-8.76181312 62.24018344-26.03700281 75.95196-22.86452531 18.15455906-55.33085719 10.85336062-55.65616688 10.77554906l-9.11337281 37.64129532z" fill="#6E6E96" p-id="2467"></path><path d="M388.05025531 260.52618969h251.76664969v38.73347531H388.05025531z" fill="#6E6E96" p-id="2468"></path><path d="M308.64644375 359.29673844h449.30680969v38.73347531H308.64644375z m0 108.45298031h251.76664969v38.73347531H308.64644375z" fill="#6E6E96" p-id="2469"></path><path d="M585.21073063 685.71410844L454.57853281 894.24637812l102.02365031-23.65389468 23.66983219 102.02365125 130.62094782-208.53320719" fill="#FF9999" p-id="2470"></path><path d="M568.80272188 675.43824406L438.16677406 883.96582625a19.36673719 19.36673719 0 0 0 20.78891532 29.15041781l102.02365031-23.64639468a19.37423719 19.37423719 0 0 1-23.24046-14.48989688l23.66233218 102.02740125c1.76998781 7.61900812 7.95181875 13.42865438 15.66738844 14.722395s15.45457781-2.18060906 19.60673625-8.81243719l130.63594688-208.53226968a19.37798719 19.37798719 0 0 0-32.83382907-20.57141625L563.84900656 962.34777031a19.35548719 19.35548719 0 0 1 19.60673625-8.81243812 19.37423719 19.37423719 0 0 1 15.66738844 14.72708343L575.46923656 866.23782687a19.37798719 19.37798719 0 0 0-23.24046-14.49083437l-102.02740031 23.65483219a19.37423719 19.37423719 0 0 1 20.78797781 29.15041781l130.63219688-208.52476969a19.37423719 19.37423719 0 0 0-6.13120594-26.69887218 19.33955063 19.33955063 0 0 0-26.68762313 6.10870593z" fill="#6E6E96" p-id="2471"></path><path d="M541.17854281 745.0030625c1.69217531 2.85091687 42.45907313 70.13387719 134.29217156 85.14314625l4.15309594-25.4201325c-80.08161938-13.08365719-115.93792688-72.24511219-116.2819875-72.849795l-22.16328 13.12678125z" fill="#6E6E96" p-id="2472"></path><path d="M619.19111375 764.0829275l130.63219781 208.53320719 23.65858219-102.02365125 102.02740031 23.65389468L744.88834625 685.71410844" fill="#A8D6F7" p-id="2473"></path><path d="M602.78404344 774.36347937l130.62750937 208.53226969a19.37423719 19.37423719 0 0 0 35.28256219-5.91089531l23.66233219-102.02740125a19.38173719 19.38173719 0 0 1-23.24796 14.48989781l102.02365031 23.64639469a19.36673719 19.36673719 0 1 0 20.78797781-29.15041875L761.292605 675.42230656a19.36673719 19.36673719 0 1 0-32.83101656 20.56391719l130.63219687 208.52851969a19.38173719 19.38173719 0 0 1 0.64312125-21.52765969 19.39392469 19.39392469 0 0 1 20.14110656-7.63119656l-102.03115031-23.64639469a19.37798719 19.37798719 0 0 0-23.24046 14.48989781l-23.65389469 102.02365031a19.37798719 19.37798719 0 0 1 35.28162469-5.91464531L635.5991225 753.77612563a19.36673719 19.36673719 0 1 0-32.8141425 20.58735375z" fill="#6E6E96" p-id="2474"></path><path d="M791.49676531 745.0030625c-1.70061281 2.85091687-42.46376062 70.13387719-134.29592156 85.14314625l-4.153095-25.4201325c80.08536937-13.08365719 115.92948938-72.24511219 116.28198656-72.849795l22.16703 13.12678125z" fill="#6E6E96" p-id="2475"></path><path d="M583.870115 749.07365938a38.73722531 38.73722531 0 0 1-37.69942031-47.63403751l16.48488281-69.81325406-58.44427219-52.50243937a38.72972531 38.72972531 0 0 1 25.88512875-67.55108344h65.4904725l32.12602219-73.98416156a38.74097531 38.74097531 0 0 1 35.10350063-23.306085h0.42655968a38.73347531 38.73347531 0 0 1 35.17756219 22.53077718l34.42944375 74.75946938h66.10640531a38.73347531 38.73347531 0 0 1 23.81326875 69.28263375l-55.46960625 43.24563 19.20361313 73.941975a38.73347531 38.73347531 0 0 1-57.70834031 42.77688375l-64.23610594-39.30628313-58.62239625 40.65439875a38.64347531 38.64347531 0 0 1-22.06671844 6.90557625z m79.37662406-132.51468469a38.71003781 38.71003781 0 0 1 20.21423157 5.69433468l3.95528437 2.42435813-1.49061469-5.73558469a38.74097531 38.74097531 0 0 1 6.61870313-33.13663969 38.71378781 38.71378781 0 0 1-19.68079782-19.29361312l-8.58275156-18.63736781-7.75869469 17.86299843a38.74097531 38.74097531 0 0 1-26.532 22.2448425l1.52623969 1.37061469a38.73347531 38.73347531 0 0 1 12.7002225 32.19914625 38.77191188 38.77191188 0 0 1 19.0301775-4.99215187z" p-id="2476"></path><path d="M872.08463094 582.85421375c0 112.17482906-90.94154156 203.10137062-203.11355813 203.10137062-112.16357906 0-203.10980813-90.93404156-203.10980812-203.10137062 0-112.18420312 90.94622906-203.10980813 203.10980812-203.10980719 112.18045312-0.0046875 203.11355812 90.92185406 203.11355813 203.10980719z" fill="#FFD28F" p-id="2477"></path><path d="M510.55157281 605.05218125c0-99.14554594 80.37130406-179.49810094 179.49435094-179.4981 43.41625406 0 92.69652938 15.41520281 123.74162156 41.07627094-32.92382906-39.85659187-92.19684562-65.25422438-147.9148875-65.25422438-99.12210844 0-179.49060094 80.35255406-179.49060094 179.50185 0 55.71522937 25.3901325 111.80826844 65.23078688 144.72366-25.64888063-31.03290469-41.06127094-77.15289-41.06127094-120.54945656z" fill="#FFFFFF" p-id="2478"></path><path d="M693.05152719 368.13167656c77.98163344 22.03109344 135.14435344 93.68089781 135.1443525 178.72373063 0 102.57677156-83.17159687 185.74555594-185.76055594 185.74555594-102.57395906 0-185.75774344-83.17628437-185.75774344-185.74555594 0-19.28142563 2.93997938-37.87004344 8.3933775-55.35429469a202.48637531 202.48637531 0 0 0-14.7027075 75.86758688c0 112.16357906 90.94622906 203.10980813 203.10980813 203.10980812 112.18326562 0 203.11355812-90.93872906 203.11355718-203.10980812 0-98.65054969-70.30825125-180.82371656-163.54008843-199.23702282z" fill="#E8B76D" p-id="2479"></path><path d="M771.61815688 545.91041375h-66.65577657l-32.85351656-71.34324375-30.98696813 71.34324375h-66.65202656l55.38804375 49.74902156-15.94957406 67.59702094 58.1995875-40.36846406 62.89642781 38.48972719-18.77799187-72.28354969z" fill="#F07D7D" p-id="2480"></path><path d="M852.71789375 582.85421375c0 101.31021844-82.428165 183.73463344-183.74682094 183.73463344-101.31115594 0-183.74307094-82.4122275-183.74307-183.73463344 0-101.31865594 82.431915-183.74400844 183.74307-183.7440075 49.08340125 0 95.23057406 19.11548906 129.9309525 53.820555 34.70600344 34.69662844 53.8158675 80.84005125 53.81586844 129.9234525zM668.97107281 360.37298094c-122.67569156 0-222.47654531 99.80835375-222.47654531 222.47654531s99.80460375 222.47279531 222.47654531 222.47279625 222.48029531-99.80366625 222.48029532-222.47279625c0-59.42770313-23.15046094-115.30511906-65.16047438-157.3188825-42.01845187-42.01845187-97.88743031-65.15766281-157.31982094-65.15766281z" fill="#6E6E96" p-id="2481"></path></svg>