<?xml version="1.0" standalone="no"?><!DOCTYPE svg PUBLIC "-//W3C//DTD SVG 1.1//EN" "http://www.w3.org/Graphics/SVG/1.1/DTD/svg11.dtd"><svg t="1697180590716" class="icon" viewBox="0 0 1024 1024" version="1.1" xmlns="http://www.w3.org/2000/svg" p-id="3528" xmlns:xlink="http://www.w3.org/1999/xlink" width="200" height="200"><path d="M285.26593686 833.87399585l-226.45789499 75.53199302V287.06102992l226.45789499-75.53199301zM964.63962179 923.07631303l-226.59597906 75.53199301V376.26334709l226.59597906-75.53199301z" fill="#F3F5CD" p-id="3529"></path><path d="M379.85353324 402.49932273c49.84835372 2.20934532 116.68104955 44.87732675 162.66304896 103.7011458 49.01984922 62.69017337 68.35162075 135.0462325 54.5432125 203.6740214-7.31845635 36.45419773-21.54111683 60.06657581-43.22031776 71.94180689-35.07335691 19.33177153-79.53643141 2.48551348-118.89039486-12.4275674-28.99765728-10.90864251-58.82381906-22.36962133-68.90395708-11.46097884-1.93317715 2.07126124-2.20934532 3.0378498-0.69042041 5.93761555 8.5612131 15.87966947 50.81494228 38.11120672 107.56750011 56.47638966 52.88620353 17.12242621 106.1866593 27.06448014 126.62310348 23.61237808 73.46073179-12.28948332 129.66095328-67.79928442 130.21328961-68.35162075 2.3474294-2.3474294 5.3852792-3.72827022 8.97546535-3.72827022V376.26334709L285.26593686 211.52903691v262.49784046c6.07569962-17.12242621 14.63691274-33.27826384 26.78831196-45.84391533 17.81284661-18.36518295 40.59672019-26.92639605 67.79928442-25.68363931z" fill="#C6C49E" p-id="3530"></path><path d="M590.01750651 871.01861398c-31.89742302 0-83.54086979-12.01331517-125.24226266-25.54555522-38.66354305-12.56565149-105.91049113-38.24929081-122.480581-69.04204114-6.76612003-12.56565149-5.10911105-25.8217234 4.55677472-36.17802957 22.09345317-23.75046215 58.68573497-9.80396985 97.34927801 4.83294288 33.96868425 12.84181965 72.4941432 27.47873238 96.93502579 13.94649232 14.36074457-8.00887677 24.57896666-26.23597565 30.24041403-54.26704435 12.28948332-61.03316438-5.24719513-125.79459897-49.43410148-182.40907273-46.39625165-59.3761554-107.15324786-92.1020829-143.19319333-93.75909189-19.6079397-0.96658859-35.34952507 4.83294288-47.77709249 17.67476254-39.0777953 40.32055203-32.58784341 132.83688718-32.58784342 133.80347577v0.96658856c0 7.04228819-5.5233633 12.84181965-12.5656515 13.11798783h-0.55233632V833.87399585l453.46812628 164.73431019V803.08124549c-20.2983601 17.53667845-70.97521831 56.20022149-134.90814841 66.83269584-4.00443838 0.69042042-8.5612131 1.10467265-13.80840822 1.10467265z" fill="#C6C49E" p-id="3531"></path><path d="M273.11453762 533.40303275c-15.74158539-21.817285-38.52545897-49.43410147-67.24694809-81.33152446-15.32733314-16.98434213-33.14017975-33.41634791-49.71026963-25.68363931-21.67920092 10.21822208-17.12242621 48.3294288-5.79953145 126.62310347 7.04228819 48.46751289 15.05116498 103.28689357 8.83738127 131.17987818-1.51892491 6.90420412-4.55677472 15.46541722-10.2182221 16.84625805-17.67476253 4.00443838-58.27148273-33.00209567-80.22685181-59.65232356l-20.16027602 16.70817396c10.77055842 13.11798782 66.69461175 77.87942242 106.46282746 68.35162074 10.35630617-2.48551348 23.88854624-10.77055842 29.68807769-36.45419774 7.31845635-32.44975935-0.69042042-87.54530818-8.5612131-140.56959577-4.83294288-33.00209567-11.87523108-81.46960857-8.42312902-96.93502578 3.1759339 2.07126124 9.11354943 6.76612003 18.6413511 17.26051029 76.63666569 85.47404695 85.19787878 110.60534992 85.8882992 113.22894749 0.8285045 6.48995186 6.35186779 11.46097883 12.97990374 11.46097883v-120.13315161c-7.04228819 19.6079397-10.49439025 40.73480429-12.15139924 59.09998722z" fill="#F4CD7D" p-id="3532"></path><path d="M729.75859779 775.87868128c-0.55233633 0.55233633-56.75255783 56.06213742-130.21328961 68.35162075-20.57452827 3.45210207-73.87498403-6.48995186-126.62310348-23.61237808-56.75255783-18.50326702-99.00628702-40.59672019-107.56750011-56.47638967-1.51892491-2.89976573-1.24275675-3.86635431 0.69042041-5.93761553 10.08013802-10.90864251 40.04438386 0.55233633 68.90395708 11.46097883 39.35396347 14.91308089 83.81703796 31.75933893 118.89039486 12.4275674 21.67920092-12.01331517 35.9018614-35.62569324 43.22031776-71.94180688 13.80840823-68.62778891-5.5233633-140.98384803-54.5432125-203.6740214-45.98199941-58.82381906-112.81469525-101.4918005-162.66304896-103.7011458-27.06448014-1.24275675-49.98643779 7.31845635-67.66120033 25.68363931-12.28948332 12.56565149-20.85069643 28.72148912-26.78831197 45.84391532v120.13315161h0.55233633c7.04228819-0.27616816 12.56565149-6.07569962 12.56565148-13.11798782v-0.96658857c-0.13808409-0.96658859-6.48995186-93.48292371 32.58784343-133.80347577 12.42756741-12.84181965 28.0310687-18.64135111 47.77709247-17.67476253 36.03994548 1.65700898 96.93502578 34.3829365 143.19319337 93.75909189 44.18690634 56.61447375 61.86166887 121.37590835 49.43410145 182.40907272-5.66144737 28.0310687-15.87966947 46.39625165-30.24041402 54.26704435-24.44088257 13.53224006-62.96634153-1.10467265-96.93502578-13.94649232-38.80162713-14.63691274-75.39390894-28.58340503-97.34927804-4.83294288-9.66588576 10.35630617-11.32289475 23.61237808-4.5567747 36.17802957 16.57008987 30.79275037 83.95512204 56.47638966 122.48058101 69.04204115 41.70139286 13.53224006 93.34483965 25.54555523 125.24226264 25.54555522 5.10911105 0 9.80396985-0.27616816 13.80840824-0.96658857 63.79484603-10.63247434 114.6097883-49.29601739 134.90814841-66.83269583v-31.48317078c-3.72827022 0.13808409-6.76612003 1.51892491-9.11354944 3.86635431z" fill="#CCA766" p-id="3533"></path><path d="M973.89125531 494.0490693l-17.12242621-19.74602377c-4.28060655 3.72827022-105.77240705 92.79250331-117.64763813 190.97028583-5.66144737 46.53433573 4.14252247 76.4985816 11.18481066 98.3158666 7.7327086 23.61237808 10.21822208 31.62125485-6.76612001 46.25816757-33.554432 28.99765728-94.31142821-33.27826384-94.86376455-33.83060016-2.48551348-2.62359757-5.79953147-4.00443838-9.3897176-4.14252247h-0.41425224v31.06891852c22.09345317 20.02219194 79.12217917 63.51867787 121.79016059 26.78831197 30.24041403-26.09789155 22.64578949-49.43410147 14.63691271-74.28923629-6.76612003-20.57452827-15.05116498-46.25816757-10.080138-87.13105593 10.35630617-88.09764451 107.56750012-173.43360737 108.67217278-174.26211187z" fill="#F4CD7D" p-id="3534"></path><path d="M738.59597906 493.77290114c-2.62359757-1.79509307-5.5233633-3.59018613-8.69929719-3.31401797s-6.07569962 3.59018613-4.83294287 6.48995185h-2.48551349c-10.90864251-10.77055842-26.09789155-17.12242621-41.56330876-17.1224262-3.45210207 0-7.18037229 0.27616816-10.08013802 2.20934531-4.83294288 3.1759339-6.35186779 9.52780169-7.31845636 15.32733313-1.79509307 10.08013802-3.45210207 20.85069643 0.27616816 30.37849813 6.48995186 16.57008987 26.37405971 23.61237808 36.31611365 38.24929079 11.59906291 16.84625804 7.7327086 39.63013162 1.79509307 59.09998723-3.0378498 10.08013802-6.48995186 20.71261235-3.8663543 30.93083444 3.1759339 12.15139925 14.63691274 20.85069643 26.78831196 24.1647144 4.55677472 1.24275675 9.11354943 1.93317715 13.80840823 2.07126123l-0.13808408-188.48477234c0.13808409 0 0 0 0 0z" fill="#68BBD8" p-id="3535"></path><path d="M762.4845253 681.42916898c4.00443838-0.27616816 8.28504494-0.8285045 11.32289475-3.31401796 4.41869063-3.59018613 4.83294288-10.08013802 5.93761553-15.74158539 2.07126124-12.01331517 8.14696086-23.33620992 16.98434214-31.75933893 3.0378498-2.89976573 6.62803595-5.5233633 10.77055842-6.07569962 6.62803595-0.96658859 12.70373557 3.59018613 19.05560335 5.79953145 15.87966947 5.3852792 33.83060016-4.69485881 42.39181326-19.05560335s9.94205392-31.89742302 10.2182221-48.60559697c0.13808409-11.46097883-0.13808409-23.19812583-4.14252247-33.96868425-4.00443838-10.77055842-12.56565149-20.43644418-23.75046216-23.06004175-19.6079397-4.55677472-36.5922818 12.84181965-50.26260595 27.47873238-3.31401797 3.45210207-7.04228819 7.18037229-11.737147 7.59462453-7.59462453 0.55233633-12.84181965-6.90420412-17.12242621-13.11798782-8.97546534-13.11798782-20.2983601-24.57896666-33.27826383-33.554432v188.20860418c7.7327086 0.55233633 15.74158539-0.13808409 23.61237807-0.8285045z" fill="#8DDCFF" p-id="3536"></path><path d="M274.63346252 207.52459852c-30.93083443-3.72827022-72.90839547 8.14696086-100.663296 24.85513481-16.01775355 4.14252247-30.10232993 10.90864251-34.24485242 23.33620992-15.87966947 47.36284023 44.73924267 90.44507392 85.61213104 69.45629339 9.66588576 0.41425225 14.36074457 12.01331517 24.85513481 18.08901477 10.77055842 6.35186779 23.06004175 8.42312903 35.21144099 7.18037229V209.1816075c-4.00443838-0.8285045-7.59462453-1.38084082-10.77055842-1.65700898zM274.49537843 621.08642503c-3.0378498 2.20934532-6.35186779 4.83294288-7.31845635 8.42312901-0.96658859 3.72827022 1.65700898 8.42312903 5.3852792 8.00887678l-0.96658858 2.89976571c-16.57008987 8.00887677-29.96424587 22.64578949-36.17802956 39.9062998-1.38084082 4.00443838-2.48551348 8.28504494-1.5189249 12.28948332 1.65700898 6.76612003 8.28504494 11.04672658 14.36074457 14.49882865 10.77055842 6.07569962 22.09345317 12.28948332 34.38293649 12.01331517 0.96658859 0 1.79509307-0.13808409 2.62359756-0.27616817v-104.66773439c-3.72827022 2.07126124-7.31845635 4.41869063-10.77055843 6.90420412z" fill="#A9D335" p-id="3537"></path><path d="M353.34138943 246.6023938c-7.87079269-21.12686459-43.77265408-32.86401158-68.07545257-37.55887039v141.26001621c15.18924905-1.51892491 30.10232993-8.5612131 41.14905653-19.05560335 18.50326702-17.67476253 36.5922818-58.82381906 26.92639604-84.64554247zM407.88460193 715.6740214c10.08013802 7.45654045 20.71261235 15.74158539 33.27826385 16.98434213 15.05116498 1.38084082 29.41190953-8.00887677 38.11120672-20.43644418 8.69929718-12.28948332 12.84181965-27.3406483 16.70817395-41.83947695 1.24275675-4.69485881 2.48551348-9.66588576 0.8285045-14.22266048-2.3474294-6.48995186-9.3897176-9.66588576-15.46541722-12.97990372-12.70373557-7.18037229-23.06004175-18.64135111-28.99765728-32.03550711-2.07126124-4.55677472-3.59018613-9.66588576-2.48551348-14.63691272 1.65700898-7.87079269 9.25163351-12.84181965 14.22266046-19.19368744 12.56565149-15.74158539 8.42312903-40.04438386-4.28060654-55.64788517-12.70373557-15.6035013-31.89742302-24.1647144-50.81494229-31.34508668-12.84181965-4.83294288-26.23597565-9.25163351-40.04438387-9.11354945-13.80840823 0.27616816-28.1691528 5.93761554-35.62569324 17.39859438-13.11798782 20.2983601-0.41425225 46.53433573 10.63247435 67.9373685 2.62359757 5.10911105 5.24719513 10.77055842 3.72827023 16.4320058-2.3474294 8.69929718-12.97990373 11.737147-21.81728502 13.9464923-14.36074457 3.72827022-28.1691528 9.52780169-40.87288836 16.98434214v104.66773438c20.02219194-1.93317715 35.48760915-20.16027601 55.23363293-25.26938707 24.02663031-5.93761554 48.05326064 7.7327086 67.66120031 22.36962134z" fill="#7D992E" p-id="3538"></path><path d="M738.73406314 1016.00690042c-2.07126124 0-4.00443838-0.41425225-5.93761553-1.10467267L284.98976869 852.23917881l-220.7964476 73.59881586c-5.24719513 1.79509307-11.04672658 0.8285045-15.6035013-2.3474294-4.55677472-3.31401797-7.18037229-8.5612131-7.18037229-14.0845764V287.06102992c0-7.45654045 4.83294288-14.08457639 11.87523108-16.43200578l226.45789499-75.53199303c3.72827022-1.24275675 7.7327086-1.24275675 11.46097882 0.13808409l447.80667892 162.66304895 220.7964476-73.59881586c5.24719513-1.79509307 11.04672658-0.8285045 15.6035013 2.3474294 4.55677472 3.31401797 7.18037229 8.5612131 7.18037229 14.08457639v622.34495895c0 7.45654045-4.83294288 14.08457639-11.87523108 16.43200579l-226.45789499 75.53199302c-1.79509307 0.69042042-3.72827022 0.96658859-5.52336329 0.96658858zM285.26593686 816.47540148c2.07126124 0 4.00443838 0.41425225 5.93761553 1.10467265L739.01023131 980.24312309l208.92121653-69.73246156V324.75798439l-203.67402141 67.9373685c-3.72827022 1.24275675-7.7327086 1.24275675-11.46097882-0.13808409L284.98976869 229.89421985l-208.92121653 69.73246157v585.75267713l203.67402141-67.93736848c1.79509307-0.69042042 3.72827022-0.96658859 5.52336329-0.96658859z" fill="#592900" p-id="3539"></path><path d="M476.0981386 581.04204115a82.98853347 24.02663031 0 1 0 165.97706693 0 82.98853347 24.02663031 0 1 0-165.97706693 0Z" fill="#999881" p-id="3540"></path><path d="M559.08667206 21.80150782c-99.42053925 0-179.92355925 80.50301999-179.92355924 179.92355924 0 143.88361376 179.92355925 355.42842785 179.92355924 355.42842785s179.92355925-217.48242963 179.92355925-355.42842785c0-99.42053925-80.50301999-179.92355925-179.92355925-179.92355924z m0 235.01910808c-33.69251609 0-61.17124846-27.3406483-61.17124845-61.17124847 0-33.69251609 27.3406483-61.17124846 61.17124845-61.17124846s61.17124846 27.3406483 61.17124847 61.17124846c0 33.83060016-27.3406483 61.17124846-61.17124847 61.17124847z" fill="#F04E2F" p-id="3541"></path><path d="M559.08667206 570.96190314c-4.00443838 0-7.87079269-1.79509307-10.63247433-4.83294287-7.45654045-8.83738127-183.09949314-217.06817739-183.09949314-364.40389321 0-106.8770797 86.99297185-193.73196747 193.73196747-193.73196748s193.73196747 86.99297185 193.73196748 193.73196748c0 141.26001619-175.64295269 355.1522597-183.09949314 364.26580912-2.48551348 3.0378498-6.35186779 4.97102697-10.63247434 4.97102696 0.13808409 0 0 0 0 0z m0-535.35198709c-91.54974657 0-165.97706693 74.42732035-165.97706692 165.97706692 0 117.23338587 127.58969205 285.41979813 165.83898285 333.33497469 38.11120672-48.74368105 166.11515102-220.9345317 166.11515101-333.33497469 0.13808409-91.41166249-74.42732035-165.97706693-165.97706694-165.97706692z m0 235.15719216c-41.42522469 0-74.97965669-33.69251609-74.97965669-74.97965668 0-41.42522469 33.69251609-74.97965669 74.97965669-74.9796567 41.42522469 0 74.97965669 33.69251609 74.97965669 74.9796567s-33.554432 74.97965669-74.97965669 74.97965668z m0-122.34249691c-26.09789155 0-47.22475615 21.12686459-47.22475615 47.22475613s21.12686459 47.22475615 47.22475615 47.22475615 47.22475615-21.26494868 47.22475615-47.22475615-21.12686459-47.22475615-47.22475615-47.22475613z" fill="#592900" p-id="3542"></path><path d="M435.91567066 173.69399837c-0.96658859 0-2.07126124-0.13808409-3.03784983-0.41425227-5.5233633-1.65700898-8.5612131-7.45654045-6.90420409-12.97990373 10.21822208-33.69251609 32.31167525-62.69017337 62.41400518-81.33152447 4.83294288-3.0378498 11.32289475-1.51892491 14.36074457 3.31401796s1.51892491 11.32289475-3.31401798 14.36074457a124.22458297 124.22458297 0 0 0-53.43853986 69.73246155c-1.51892491 4.41869063-5.66144737 7.31845635-10.08013799 7.31845639z" fill="#FFFFFF" p-id="3543"></path><path d="M430.39230736 221.747259c-5.3852792 0-10.08013802-4.28060655-10.35630618-9.66588576-0.27616816-3.1759339-0.27616816-6.35186779-0.27616815-9.66588577 0-5.3852792 0.27616816-10.90864251 0.96658857-16.43200578 0.69042042-5.66144737 5.79953147-9.80396985 11.46097883-9.25163353 5.66144737 0.69042042 9.80396985 5.79953147 9.2516335 11.46097884-0.55233633 4.69485881-0.8285045 9.3897176-0.82850448 14.0845764 0 2.76168163 0.13808409 5.5233633 0.27616817 8.28504493 0.41425225 5.79953147-4.00443838 10.63247434-9.66588577 11.04672658-0.27616816 0.13808409-0.55233633 0.13808409-0.82850449 0.13808409z" fill="#FFFFFF" p-id="3544"></path></svg>